<svg width="50" height="50" viewBox="0 0 50 50" fill="none" xmlns="http://www.w3.org/2000/svg">
<path d="M24.75 26.8333C24.1597 26.8333 23.6653 26.6333 23.2667 26.2333C22.8667 25.8347 22.6667 25.3403 22.6667 24.75V8.08333C22.6667 7.49306 22.8667 6.99792 23.2667 6.59792C23.6653 6.19931 24.1597 6 24.75 6C25.3403 6 25.8354 6.19931 26.2354 6.59792C26.634 6.99792 26.8333 7.49306 26.8333 8.08333V24.75C26.8333 25.3403 26.634 25.8347 26.2354 26.2333C25.8354 26.6333 25.3403 26.8333 24.75 26.8333ZM24.75 43.5C22.1458 43.5 19.7069 43.0056 17.4333 42.0167C15.1583 41.0264 13.1792 39.6889 11.4958 38.0042C9.81111 36.3208 8.47361 34.3417 7.48333 32.0667C6.49444 29.7931 6 27.3542 6 24.75C6 22.3542 6.43403 20.0625 7.30208 17.875C8.17014 15.6875 9.42014 13.7083 11.0521 11.9375C11.434 11.5208 11.9201 11.3125 12.5104 11.3125C13.1007 11.3125 13.6042 11.5208 14.0208 11.9375C14.4028 12.3194 14.5764 12.7965 14.5417 13.3688C14.5069 13.9424 14.2986 14.4549 13.9167 14.9062C12.7014 16.2604 11.7729 17.7792 11.1312 19.4625C10.4882 21.1472 10.1667 22.9097 10.1667 24.75C10.1667 28.8125 11.5819 32.2583 14.4125 35.0875C17.2417 37.9181 20.6875 39.3333 24.75 39.3333C28.8125 39.3333 32.2583 37.9181 35.0875 35.0875C37.9181 32.2583 39.3333 28.8125 39.3333 24.75C39.3333 22.9097 39.0035 21.1306 38.3437 19.4125C37.684 17.6931 36.7465 16.1562 35.5312 14.8021C35.1493 14.3854 34.95 13.8993 34.9333 13.3437C34.9153 12.7882 35.0972 12.3194 35.4792 11.9375C35.8958 11.5208 36.3993 11.3125 36.9896 11.3125C37.5799 11.3125 38.066 11.5208 38.4479 11.9375C40.0799 13.7083 41.3299 15.6875 42.1979 17.875C43.066 20.0625 43.5 22.3542 43.5 24.75C43.5 27.3542 43.0056 29.7931 42.0167 32.0667C41.0264 34.3417 39.6896 36.3208 38.0063 38.0042C36.3215 39.6889 34.3424 41.0264 32.0687 42.0167C29.7937 43.0056 27.3542 43.5 24.75 43.5Z" fill="#F8F8F8"/>
</svg>
